<?xml version="1.0" encoding="utf-8"?>
<!-- Generator: Adobe Illustrator 23.0.3, SVG Export Plug-In . SVG Version: 6.00 Build 0)  -->
<svg version="1.1" id="Слой_1" xmlns="http://www.w3.org/2000/svg" xmlns:xlink="http://www.w3.org/1999/xlink" x="0px" y="0px"
	 viewBox="0 0 757.9 728.9" style="enable-background:new 0 0 757.9 728.9;" xml:space="preserve">
<style type="text/css">
	.st0{fill:#FFFFFF;stroke:#000000;stroke-miterlimit:10;}
	.st1{fill:url(#SVGID_1_);}
	.st2{fill:url(#SVGID_2_);}
	.st3{fill:url(#SVGID_3_);}
	.st4{fill:url(#SVGID_4_);}
</style>
<title>backgroundFigure2</title>
<path class="st0" d="M113.2,728.9"/>
<linearGradient id="SVGID_1_" gradientUnits="userSpaceOnUse" x1="-163.1884" y1="1564.233" x2="-163.1884" y2="1564.233" gradientTransform="matrix(-0.3173 0.9483 0.9483 0.3173 -777.2596 208.417)">
	<stop  offset="1.000000e-02" style="stop-color:#ECD5CB"/>
	<stop  offset="0.13" style="stop-color:#D4C6C3"/>
	<stop  offset="0.42" style="stop-color:#A2A8B3"/>
	<stop  offset="0.67" style="stop-color:#7D92A8"/>
	<stop  offset="0.87" style="stop-color:#6784A1"/>
	<stop  offset="1" style="stop-color:#5F7F9E"/>
</linearGradient>
<path class="st1" d="M757.9,550"/>
<linearGradient id="SVGID_2_" gradientUnits="userSpaceOnUse" x1="-447.9471" y1="1355.3765" x2="248.8371" y2="1186.8705" gradientTransform="matrix(-0.3173 0.9483 0.9483 0.3173 -777.2596 208.417)">
	<stop  offset="1.000000e-02" style="stop-color:#ECD5CB"/>
	<stop  offset="0.13" style="stop-color:#D4C6C3"/>
	<stop  offset="0.42" style="stop-color:#A2A8B3"/>
	<stop  offset="0.67" style="stop-color:#7D92A8"/>
	<stop  offset="0.87" style="stop-color:#6784A1"/>
	<stop  offset="1" style="stop-color:#5F7F9E"/>
</linearGradient>
<path class="st2" d="M759.1,234.7c0,0-148.7,0.8-228.3,16.3C312.5,293.7,227.5,404.7,203,433.9c-101.2,120.3-89.4,295-89.4,295
	h459.4c25.3-103.5,71.2-156.4,186.1-190.1V234.7z"/>
<linearGradient id="SVGID_3_" gradientUnits="userSpaceOnUse" x1="-51.452" y1="-344.7084" x2="-51.452" y2="-344.7084" gradientTransform="matrix(0.3384 -0.941 -0.941 -0.3384 167.2815 -165.0688)">
	<stop  offset="1.000000e-02" style="stop-color:#ECD5CB"/>
	<stop  offset="0.13" style="stop-color:#D4C6C3"/>
	<stop  offset="0.42" style="stop-color:#A2A8B3"/>
	<stop  offset="0.67" style="stop-color:#7D92A8"/>
	<stop  offset="0.87" style="stop-color:#6784A1"/>
	<stop  offset="1" style="stop-color:#5F7F9E"/>
</linearGradient>
<path class="st3" d="M474.2,0"/>
<linearGradient id="SVGID_4_" gradientUnits="userSpaceOnUse" x1="-416.5274" y1="-121.8456" x2="29.5627" y2="-229.7256" gradientTransform="matrix(0.29 -0.8 -0.81 -0.29 49.32 -126.13)">
	<stop  offset="1.000000e-02" style="stop-color:#ECD5CB"/>
	<stop  offset="0.13" style="stop-color:#D4C6C3"/>
	<stop  offset="0.42" style="stop-color:#A2A8B3"/>
	<stop  offset="0.67" style="stop-color:#7D92A8"/>
	<stop  offset="0.87" style="stop-color:#6784A1"/>
	<stop  offset="1" style="stop-color:#5F7F9E"/>
</linearGradient>
<path class="st4" d="M0,0l0.4,251c70.6-34.3,76.1-39.4,112.4-73.1c47.7-44.3,64.6-102.7,93-128.3C262.1-0.7,377.2,0,377.2,0
	S14.6,0.6,0,0z"/>
</svg>
