<svg id="Слой_1_копия_" data-name="Слой 1 (копия)" xmlns="http://www.w3.org/2000/svg" xmlns:xlink="http://www.w3.org/1999/xlink" viewBox="0 0 759.06 728.91"><defs><style>.cls-1{fill:#fff;stroke:#000;stroke-miterlimit:10;}.cls-2{fill:url(#Безымянный_градиент);}.cls-3{fill:url(#Безымянный_градиент-2);}.cls-4{fill:url(#Безымянный_градиент_2);}.cls-5{fill:url(#Безымянный_градиент_3);}</style><linearGradient id="Безымянный_градиент" x1="-163.19" y1="1564.23" x2="-163.19" y2="1564.23" gradientTransform="matrix(-0.32, 0.95, 0.95, 0.32, -777.26, 208.42)" gradientUnits="userSpaceOnUse"><stop offset="0.01" stop-color="#ecd5cb"/><stop offset="0.13" stop-color="#d4c6c3"/><stop offset="0.42" stop-color="#a2a8b3"/><stop offset="0.67" stop-color="#7d92a8"/><stop offset="0.87" stop-color="#6784a1"/><stop offset="1" stop-color="#5f7f9e"/></linearGradient><linearGradient id="Безымянный_градиент-2" x1="-436.19" y1="1404" x2="260.6" y2="1235.49" xlink:href="#Безымянный_градиент"/><linearGradient id="Безымянный_градиент_2" x1="-51.45" y1="-344.71" x2="-51.45" y2="-344.71" gradientTransform="matrix(0.34, -0.94, -0.94, -0.34, 167.28, -165.07)" xlink:href="#Безымянный_градиент"/><linearGradient id="Безымянный_градиент_3" x1="-416.53" y1="-121.85" x2="29.56" y2="-229.73" gradientTransform="matrix(0.29, -0.8, -0.81, -0.29, 49.32, -126.13)" xlink:href="#Безымянный_градиент"/></defs><title>backgroundFigure2min</title><path class="cls-1" d="M113.24,728.91" transform="translate(0 0)"/><path class="cls-2" d="M757.92,550" transform="translate(0 0)"/><path class="cls-3" d="M759.06,234.7s-148.74.75-228.25,16.3C312.51,293.68,227.54,404.67,203,433.85c-101.23,120.26-89.43,295-89.43,295H572.94l185,.06Z" transform="translate(0 0)"/><path class="cls-4" d="M474.24,0" transform="translate(0 0)"/><path class="cls-5" d="M0,0,.44,251C71,216.74,76.59,211.63,112.88,177.93c47.66-44.25,64.57-102.72,93.05-128.25C262.15-.73,377.22,0,377.22,0S14.57.59,0,0Z" transform="translate(0 0)"/></svg>