<svg id="Слой_1" data-name="Слой 1" xmlns="http://www.w3.org/2000/svg" xmlns:xlink="http://www.w3.org/1999/xlink" viewBox="0 0 757.92 728.88"><defs><style>.cls-1{fill:#fff;stroke:#000;stroke-miterlimit:10;}.cls-2{fill:url(#Безымянный_градиент_55);}.cls-3{fill:url(#Безымянный_градиент_55-2);}.cls-4{fill:url(#Безымянный_градиент_55-3);}</style><linearGradient id="Безымянный_градиент_55" x1="155.99" y1="95.91" x2="860.73" y2="266.34" gradientTransform="translate(845.01 120.55) rotate(108.5)" gradientUnits="userSpaceOnUse"><stop offset="0.01" stop-color="#ecd5cb"/><stop offset="0.13" stop-color="#d4c6c3"/><stop offset="0.42" stop-color="#a2a8b3"/><stop offset="0.67" stop-color="#7d92a8"/><stop offset="0.87" stop-color="#6784a1"/><stop offset="1" stop-color="#5f7f9e"/></linearGradient><linearGradient id="Безымянный_градиент_55-2" x1="496.98" y1="644.68" x2="496.98" y2="644.68" gradientTransform="translate(-300.6 249.45) rotate(-70.22)" xlink:href="#Безымянный_градиент_55"/><linearGradient id="Безымянный_градиент_55-3" x1="127.24" y1="324.16" x2="573.33" y2="432.04" gradientTransform="matrix(0.29, -0.8, 0.81, 0.29, -271.93, 250.42)" xlink:href="#Безымянный_градиент_55"/></defs><title>backgroundFigure2</title><path class="cls-1" d="M113.24,728.91" transform="translate(0 0)"/><path class="cls-2" d="M757.92,223.72c-72.12,46.34-177.66,69.58-196.36,73-87.32,16.08-247.15,42.9-343.15,150.13-104.85,117.12-104.86,282-104.86,282H757.92" transform="translate(0 0)"/><path class="cls-3" d="M474.24,0" transform="translate(0 0)"/><path class="cls-4" d="M0,0,.44,251C71,216.74,76.59,211.63,112.88,177.93c47.66-44.25,64.57-102.72,93.05-128.25C262.15-.73,377.22,0,377.22,0S14.57.59,0,0Z" transform="translate(0 0)"/></svg>